<?xml version="1.0" encoding="UTF-8"?>
<svg id="Layer_1" xmlns="http://www.w3.org/2000/svg" version="1.1" viewBox="0 0 990.9 114.1">
  <!-- Generator: Adobe Illustrator 29.5.1, SVG Export Plug-In . SVG Version: 2.1.0 Build 141)  -->
  <path d="M564.4.1v111.7h-26.3v-7.6c-1.2,1.2-2.5,2.4-4.1,3.5-8.3,6-17.5,6.5-22.5,6.3,0,0-4.5,0-8.6-1.2-7.6-2.2-13.3-8.8-14.4-10-10.3-11.9-9.9-28.2-9.9-32.8.1-5.1.5-28.2,16.2-38.6,8-5.3,16.6-5.2,16.6-5.2,3.8-.1,11,.1,18.5,4,3.5,1.8,6.1,3.9,8.1,5.8V.1h26.3,0ZM521.5,48.8c-10.8,0-16.3,7.2-16.3,21.4s5.5,21.4,16.3,21.4,16.6-7.6,16.6-21.4-5.9-21.4-16.6-21.4Z"/>
  <path d="M42.9,91.4c8.6,0,13-5.2,14.5-13.3h26.1c-2.6,21.4-18.4,35.9-40.7,35.9-25.1,0-42.9-17.2-42.9-43.9S17.9,26.2,42.9,26.2s38,14.4,40.7,35.9h-26.2c-1.5-8.1-5.9-13.3-14.5-13.3s-16.5,7.4-16.5,21.2,6,21.3,16.5,21.3h0Z"/>
  <path d="M144.8,28.5h26.3v83.2h-26.3v-25.5c-3.2,18.2-13,27.7-28.4,27.7s-26.3-12.2-26.3-36.2V28.5h26.3v43.6c0,12.9,4.4,19.3,13.6,19.3s14.9-6.9,14.9-19.9V28.5Z"/>
  <path d="M205.7,111.7h-26.3V28.5h26.3v30.1c2.6-18.4,10-30.1,25.6-30.1h5.6v24.6h-11.2c-15.6,0-19.9,6.9-19.9,22.2v36.4Z"/>
  <path d="M367.6,114c-19.1,0-29-11.2-29-33.2v-31.8h-10v-20.5h10V9.3h26.3v19.2h22.1v20.5h-22.1v31.8c0,8.8,3,12.6,10.1,12.6s6.7-.6,12-2v19.5c-7.4,1.9-13.8,2.9-19.4,2.9h0Z"/>
  <path d="M473.1,83.2c-4.6,19.1-20.2,30.8-40.8,30.8s-42.6-17.7-42.6-43.9,17-43.8,42.1-43.8,41.6,17.4,41.6,43.7-.1,4.2-.3,6.3h-58.5c1.3,11.1,8,17.5,18.4,17.5s12.9-3.5,15.9-10.5h24.2,0ZM448.8,61.9c-1.8-10.6-7.4-15.9-16.8-15.9s-15.6,5.6-17.2,15.9h33.9,0Z"/>
  <path d="M634.7,111.7h-26.3V28.5h26.3v25.5c3.2-18.2,13-27.7,28.4-27.7s26.3,12.2,26.3,36.2v49.2h-26.3v-43.6c0-12.9-4.4-19.3-13.6-19.3s-14.9,6.9-14.9,19.9v43h0Z"/>
  <path d="M738.8,26.2c25.1,0,42.9,17.2,42.9,43.9s-17.8,43.9-42.9,43.9-42.9-17.2-42.9-43.9,17.8-43.8,42.9-43.9ZM738.8,91.4c10.5,0,16.4-7.5,16.4-21.3s-5.9-21.2-16.4-21.2-16.5,7.4-16.5,21.2,6,21.3,16.5,21.3Z"/>
  <path d="M815,20.2h-26.6V0h26.6v20.2ZM814.8,111.7h-26.3V28.5h26.3v83.2Z"/>
  <path d="M900.7,56h-26c0-7.3-4.6-11.5-13.5-11.5s-12.8,3.1-12.8,7.6,7.1,7.1,16.1,8.7l5.6,1c13.1,2.3,32.8,5.8,32.8,25.5s-14.6,26.7-40.3,26.7-41.8-10.9-41.8-30.4h26c0,7.8,5.1,12,15.5,12s14.5-3,14.5-7.9-6.5-7.3-17.1-9.2l-5.6-1c-12.1-2.2-31.8-5.6-31.8-24.9s14.2-26.3,38.1-26.3,40.2,11.2,40.2,29.7h0Z"/>
  <path d="M990.6,83.2c-4.6,19.1-20.2,30.8-40.8,30.8s-42.6-17.7-42.6-43.9,17-43.8,42.2-43.8,41.6,17.4,41.6,43.7-.1,4.2-.3,6.3h-58.5c1.3,11.1,8,17.5,18.4,17.5s12.9-3.5,15.8-10.5h24.2,0ZM966.3,61.9c-1.8-10.6-7.4-15.9-16.8-15.9s-15.6,5.6-17.2,15.9h33.9Z"/>
  <path d="M324,25.9v85.9h-26.3v-7.6c-1.2,1.2-2.5,2.4-4.1,3.5-8.3,6-17.5,6.5-22.5,6.3,0,0-4.5,0-8.6-1.2-7.6-2.2-13.3-8.8-14.4-10-10.3-11.9-9.9-28.2-9.9-32.8.1-5.1.6-28.2,16.2-38.6,8-5.3,16.6-5.2,16.6-5.2,3.9-.1,11,.1,18.5,4,3.5,1.8,6.1,3.9,8.1,5.8v-10c8.8,0,17.5-.1,26.3-.2h0ZM281.1,48.8c-10.8,0-16.3,7.2-16.3,21.4s5.5,21.4,16.3,21.4,16.6-7.6,16.6-21.4-5.9-21.4-16.6-21.4Z"/>
</svg>