<?xml version="1.0" encoding="UTF-8"?>
<svg id="Layer_1" data-name="Layer 1" xmlns="http://www.w3.org/2000/svg" viewBox="0 0 990.94 114.11">
  <path d="M564.37.12v111.7h-26.27v-7.61c-1.18,1.2-2.54,2.4-4.1,3.53-8.3,5.99-17.55,6.5-22.5,6.35,0,0-4.52-.01-8.59-1.16-7.6-2.15-13.33-8.79-14.35-9.97-10.26-11.88-9.94-28.19-9.85-32.76.1-5.09.55-28.19,16.23-38.6,8-5.31,16.57-5.25,16.57-5.25,3.85-.15,10.99.14,18.52,4.05,3.47,1.8,6.14,3.92,8.09,5.75,0-12.01,0-24.02,0-36.03h26.27ZM521.53,48.8c-10.79,0-16.34,7.21-16.34,21.4s5.55,21.44,16.34,21.44,16.57-7.55,16.57-21.44-5.89-21.4-16.57-21.4Z" style="fill: #f7f7f7;"/>
  <path d="M42.94,91.36c8.6,0,12.98-5.21,14.53-13.28h26.15c-2.64,21.43-18.45,35.89-40.68,35.89C17.85,113.96,0,96.76,0,70.08S17.85,26.23,42.94,26.23c22.26,0,38.04,14.42,40.68,35.89h-26.15c-1.55-8.08-5.92-13.28-14.53-13.28-10.49,0-16.45,7.43-16.45,21.25s5.96,21.28,16.45,21.28Z" style="fill: #f7f7f7;"/>
  <path d="M144.75,28.49h26.26v83.21h-26.26v-25.47c-3.25,18.23-13.02,27.74-28.42,27.74-17.43,0-26.3-12.23-26.3-36.23V28.49h26.26v43.59c0,12.94,4.42,19.28,13.59,19.28s14.87-6.87,14.87-19.89V28.49Z" style="fill: #f7f7f7;"/>
  <path d="M205.72,111.7h-26.26V28.49h26.26v30.08c2.57-18.42,9.96-30.08,25.62-30.08h5.55v24.6h-11.25c-15.59,0-19.92,6.87-19.92,22.19v36.42Z" style="fill: #f7f7f7;"/>
  <path d="M367.56,113.96c-19.13,0-28.98-11.17-28.98-33.17v-31.77h-9.96v-20.53h9.96V9.32h26.26v19.17h22.11v20.53h-22.11v31.81c0,8.79,3.02,12.64,10.11,12.64,2.91,0,6.68-.64,12-1.96v19.55c-7.36,1.92-13.77,2.91-19.4,2.91Z" style="fill: #f7f7f7;"/>
  <path d="M473.1,83.21c-4.64,19.09-20.23,30.76-40.79,30.76-25.4,0-42.6-17.74-42.6-43.93s17.02-43.81,42.15-43.81,41.62,17.43,41.62,43.74c0,2.04-.11,4.19-.34,6.26h-58.49c1.28,11.06,7.96,17.51,18.42,17.51,7.7,0,12.91-3.51,15.85-10.53h24.19ZM448.8,61.89c-1.77-10.57-7.43-15.89-16.75-15.89s-15.59,5.62-17.17,15.89h33.93Z" style="fill: #f7f7f7;"/>
  <path d="M634.74,111.7h-26.26V28.49h26.26v25.47c3.25-18.23,13.02-27.74,28.42-27.74,17.43,0,26.3,12.23,26.3,36.23v49.25h-26.26v-43.59c0-12.94-4.42-19.28-13.59-19.28s-14.87,6.87-14.87,19.89v42.98Z" style="fill: #f7f7f7;"/>
  <path d="M738.81,26.23c25.13,0,42.94,17.17,42.94,43.85s-17.81,43.89-42.94,43.89-42.94-17.21-42.94-43.89,17.85-43.85,42.94-43.85ZM738.84,91.36c10.53,0,16.42-7.47,16.42-21.28s-5.89-21.25-16.42-21.25-16.49,7.43-16.49,21.25,5.96,21.28,16.49,21.28Z" style="fill: #f7f7f7;"/>
  <path d="M814.95,20.23h-26.57V0h26.57v20.23ZM814.8,111.7h-26.26V28.49h26.26v83.21Z" style="fill: #f7f7f7;"/>
  <path d="M900.68,55.96h-26c0-7.32-4.64-11.55-13.47-11.55-7.59,0-12.79,3.06-12.79,7.62,0,5.89,7.09,7.09,16.11,8.68l5.59.98c13.13,2.34,32.83,5.81,32.83,25.55,0,16.98-14.57,26.72-40.3,26.72-27.13,0-41.77-10.87-41.77-30.38h26c0,7.77,5.13,11.96,15.55,11.96,8.94,0,14.53-3.02,14.53-7.92,0-6.11-6.45-7.28-17.09-9.17l-5.59-1.02c-12.08-2.15-31.81-5.62-31.81-24.91,0-16.38,14.23-26.3,38.08-26.3,25.36,0,40.15,11.21,40.15,29.74Z" style="fill: #f7f7f7;"/>
  <path d="M990.56,83.21c-4.64,19.09-20.23,30.76-40.79,30.76-25.4,0-42.6-17.74-42.6-43.93s17.02-43.81,42.15-43.81,41.62,17.43,41.62,43.74c0,2.04-.11,4.19-.34,6.26h-58.49c1.28,11.06,7.96,17.51,18.42,17.51,7.7,0,12.91-3.51,15.85-10.53h24.19ZM966.26,61.89c-1.77-10.57-7.43-15.89-16.76-15.89s-15.59,5.62-17.17,15.89h33.93Z" style="fill: #f7f7f7;"/>
  <path d="M323.97,25.94c0,28.63,0,57.26,0,85.89h-26.27v-7.61c-1.18,1.2-2.54,2.4-4.1,3.53-8.3,5.99-17.55,6.5-22.5,6.35,0,0-4.52-.01-8.59-1.16-7.6-2.15-13.33-8.79-14.35-9.97-10.26-11.88-9.94-28.19-9.85-32.76.1-5.09.55-28.19,16.23-38.6,8-5.31,16.57-5.25,16.57-5.25,3.85-.15,10.99.14,18.52,4.05,3.47,1.8,6.14,3.92,8.09,5.75,0-3.35,0-6.69,0-10.04,8.76-.06,17.51-.12,26.27-.18ZM281.14,48.8c-10.79,0-16.34,7.21-16.34,21.4s5.55,21.44,16.34,21.44,16.57-7.55,16.57-21.44-5.89-21.4-16.57-21.4Z" style="fill: #f7f7f7;"/>
</svg>