<?xml version="1.0" encoding="UTF-8"?>
<svg id="Layer_1" data-name="Layer 1" xmlns="http://www.w3.org/2000/svg" viewBox="0 0 320.26 160.25">
  <path d="M160.16,160.25c-43.93,0-80.08-36.15-80.08-80.08S116.23.09,160.16.09v160.16Z" style="fill: #c7c7ff;"/>
  <path d="M80.08,160.25C36.15,160.25,0,124.1,0,80.17,0,36.24,36.15.09,80.08.09v160.16Z" style="fill: #c7c7ff;"/>
  <path d="M160.11,80.08C160.11,36.15,196.26,0,240.19,0c43.93,0,80.08,36.15,80.08,80.08-53.39,0-106.77,0-160.16,0Z" style="fill: #c7c7ff;"/>
  <path d="M160.11,160.25c0-43.93,36.15-80.08,80.08-80.08s80.08,36.15,80.08,80.08h-160.16Z" style="fill: #c7c7ff;"/>
</svg>